<svg xmlns="http://www.w3.org/2000/svg" xmlns:xlink="http://www.w3.org/1999/xlink" width="24" height="24" viewBox="0 0 24 24">
  <defs>
    <clipPath id="clip-path">
      <rect id="Rectangle_20380" data-name="Rectangle 20380" width="24" height="24" transform="translate(-1638 -20464)" fill="#fff"/>
    </clipPath>
  </defs>
  <g id="ico_-_stories_-_default" data-name="ico - stories - default" transform="translate(1638 20464)" clip-path="url(#clip-path)">
    <g id="Group_19093" data-name="Group 19093" transform="translate(-1638 -20464)">
      <path id="Path_30963" data-name="Path 30963" d="M12,5.25a.75.75,0,0,1,.75.75V18a.75.75,0,0,1-1.5,0V6A.75.75,0,0,1,12,5.25Z" fill="#fff" fill-rule="evenodd"/>
      <path id="Path_30964" data-name="Path 30964" d="M5.25,12A.75.75,0,0,1,6,11.25H18a.75.75,0,0,1,0,1.5H6A.75.75,0,0,1,5.25,12Z" fill="#fff" fill-rule="evenodd"/>
      <path id="Path_30965" data-name="Path 30965" d="M10.226,2.128a.75.75,0,0,1-.539.913,9.175,9.175,0,0,0-1.437.5.75.75,0,0,1-.609-1.371,10.675,10.675,0,0,1,1.672-.582A.75.75,0,0,1,10.226,2.128ZM5.756,4.152a.75.75,0,0,1-.041,1.06,9.289,9.289,0,0,0-1.861,2.4A.75.75,0,0,1,2.535,6.9,10.789,10.789,0,0,1,4.7,4.112.75.75,0,0,1,5.756,4.152Zm-3.5,5.467a.75.75,0,0,1,.618.862,9.365,9.365,0,0,0,0,3.037.75.75,0,1,1-1.48.244,10.865,10.865,0,0,1,0-3.526A.75.75,0,0,1,2.256,9.619Zm.583,6.466a.75.75,0,0,1,1.016.3,9.287,9.287,0,0,0,1.861,2.4.75.75,0,0,1-1.019,1.1A10.791,10.791,0,0,1,2.535,17.1.75.75,0,0,1,2.839,16.085ZM7.26,20.839a.75.75,0,0,1,.99-.381,9.169,9.169,0,0,0,1.437.5.75.75,0,0,1-.374,1.453,10.678,10.678,0,0,1-1.672-.582A.75.75,0,0,1,7.26,20.839ZM11.25,2A.75.75,0,0,1,12,1.25a10.75,10.75,0,0,1,0,21.5.75.75,0,0,1,0-1.5,9.25,9.25,0,0,0,0-18.5A.75.75,0,0,1,11.25,2Z" fill="#fff" fill-rule="evenodd"/>
    </g>
  </g>
</svg>
