<svg xmlns="http://www.w3.org/2000/svg" xmlns:xlink="http://www.w3.org/1999/xlink" width="224" height="224" viewBox="0 0 224 224">
  <defs>
    <clipPath id="clip-path">
      <rect id="Rectangle_20393" data-name="Rectangle 20393" width="224" height="224" transform="translate(737 4587)" fill="#fff" stroke="#707070" stroke-width="1"/>
    </clipPath>
    <clipPath id="clip-path-2">
      <rect id="Rectangle_20296" data-name="Rectangle 20296" width="85.08" height="221.085" fill="none"/>
    </clipPath>
    <clipPath id="clip-path-4">
      <rect id="Rectangle_20293" data-name="Rectangle 20293" width="5.432" height="17.523" fill="#813f3e"/>
    </clipPath>
    <clipPath id="clip-path-5">
      <rect id="Rectangle_20294" data-name="Rectangle 20294" width="5.616" height="17.523" fill="#813f3e"/>
    </clipPath>
  </defs>
  <g id="png_-_character" data-name="png - character" transform="translate(-737 -4587)" clip-path="url(#clip-path)">
    <g id="png_-_character-2" data-name="png - character" transform="translate(806.459 4587)">
      <g id="Group_18904" data-name="Group 18904" clip-path="url(#clip-path-2)">
        <g id="Group_18903" data-name="Group 18903">
          <g id="Group_18902" data-name="Group 18902" clip-path="url(#clip-path-2)">
            <path id="Path_30304" data-name="Path 30304" d="M79.982,226.85c-.318-1.789-.654-2.778-1.146-5.354a69.662,69.662,0,0,1-1.146-9.356v-3.786q-.286-9.492-.573-18.983a102.209,102.209,0,0,0-.573-17.523c-.435-3.62-.985-6.966-2.292-13.629q-1.146-5.841-2.292-11.682a19.951,19.951,0,0,1-1.719-10.222c.375-3.419,1.567-5.124,2.865-9.735a49.26,49.26,0,0,0,1.719-9.735,16.45,16.45,0,0,1-4.011-6.814,15.81,15.81,0,0,1-.573-4.381,19.716,19.716,0,0,1,1.146-6.814,22.33,22.33,0,0,0-7.449-3.894,25.162,25.162,0,0,0-9.254-.994,21.145,21.145,0,0,1-3.266,0,25.162,25.162,0,0,0-9.254.994,22.33,22.33,0,0,0-7.449,3.894,19.716,19.716,0,0,1,1.146,6.814,15.81,15.81,0,0,1-.573,4.381,16.449,16.449,0,0,1-4.011,6.814A49.26,49.26,0,0,0,33,126.58c1.3,4.611,2.49,6.316,2.865,9.735a19.951,19.951,0,0,1-1.719,10.222L31.85,158.218c-1.307,6.663-1.856,10.009-2.292,13.629a102.209,102.209,0,0,0-.573,17.523q-.286,9.492-.573,18.983v3.786a69.665,69.665,0,0,1-1.146,9.356c-.492,2.576-.828,3.565-1.146,5.354a33.879,33.879,0,0,0,0,11.491v22.648h9.741a52.576,52.576,0,0,1,0-10.775A54.011,54.011,0,0,1,39.3,236.1a43.577,43.577,0,0,0,1.146-4.868c1.227-6.99.064-10.542.573-16.549A39.588,39.588,0,0,1,43.31,204.46q1.433-6.814,2.865-13.629c.121-.725.489-2.919,1.146-6.814.732-4.342,1.133-6.548,2.865-8.275l.03-.03a4.183,4.183,0,0,1,5.669,0l.03.03c1.732,1.727,2.133,3.933,2.865,8.275.657,3.9,1.025,6.089,1.146,6.814q1.433,6.814,2.865,13.629a39.588,39.588,0,0,1,2.292,10.222c.509,6.008-.654,9.56.573,16.549A43.583,43.583,0,0,0,66.8,236.1a54.011,54.011,0,0,1,3.438,14.116,52.575,52.575,0,0,1,0,10.775h9.741V238.341a33.878,33.878,0,0,0,0-11.491" transform="translate(-10.945 -48.179)" fill="#642f2f"/>
            <g id="Group_18898" data-name="Group 18898" transform="translate(59.02 51.21)">
              <g id="Group_18897" data-name="Group 18897">
                <g id="Group_18896" data-name="Group 18896" clip-path="url(#clip-path-4)">
                  <path id="Path_30305" data-name="Path 30305" d="M103.852,105.207l4.584,2.434a29.861,29.861,0,0,0-.573,15.089,19.117,19.117,0,0,1-4.011-6.815,17.377,17.377,0,0,1,0-10.709" transform="translate(-103.004 -105.207)" fill="#813f3e"/>
                </g>
              </g>
            </g>
            <g id="Group_18901" data-name="Group 18901" transform="translate(19.484 51.21)">
              <g id="Group_18900" data-name="Group 18900">
                <g id="Group_18899" data-name="Group 18899" clip-path="url(#clip-path-5)">
                  <path id="Path_30306" data-name="Path 30306" d="M38.588,105.207,34,107.641a34.1,34.1,0,0,1,1.146,5.841,33.7,33.7,0,0,1-.3,9.248,18.287,18.287,0,0,0,4.011-6.815,16.666,16.666,0,0,0-.275-10.709" transform="translate(-34.004 -105.207)" fill="#813f3e"/>
                </g>
              </g>
            </g>
            <path id="Path_30307" data-name="Path 30307" d="M53.484,91.56V88.153a36.386,36.386,0,0,1,23.493,0V91.56a47.946,47.946,0,0,0-23.493,0" transform="translate(-22.838 -44.245)" fill="#432525"/>
            <path id="Path_30308" data-name="Path 30308" d="M64.944,86.206a36.094,36.094,0,0,0-11.46,1.947v.974a36.386,36.386,0,0,1,23.493,0v-.974a36.155,36.155,0,0,0-12.033-1.947" transform="translate(-22.838 -44.245)" fill="#642f2e"/>
            <path id="Path_30309" data-name="Path 30309" d="M78.188,215.457c-2.04-13.337-.038-17.376-1.146-33.1a185.929,185.929,0,0,0-2.292-18.5c-.792-4.553-1.627-8.376-2.292-11.2q-.573-3.651-1.146-7.3a20.047,20.047,0,0,1-.573-11.682c.588-2.175,1.335-3.271,2.292-6.328a39.057,39.057,0,0,0,1.719-9.248,18.382,18.382,0,0,1-4.011-8.762,17.133,17.133,0,0,1,1.146-9.248A21.253,21.253,0,0,0,64.436,96.2a23.843,23.843,0,0,0-8.327-.9,21.244,21.244,0,0,1-2.827,0,23.843,23.843,0,0,0-8.327.9,21.253,21.253,0,0,0-7.449,3.894,17.133,17.133,0,0,1,1.146,9.248,18.382,18.382,0,0,1-4.011,8.762,39.057,39.057,0,0,0,1.719,9.248c.957,3.056,1.7,4.153,2.292,6.328a20.047,20.047,0,0,1-.573,11.682q-.573,3.651-1.146,7.3c-.665,2.819-1.5,6.643-2.292,11.2a185.921,185.921,0,0,0-2.292,18.5c-1.108,15.723.894,19.762-1.146,33.1-.575,3.761-1.25,6.812-1.719,8.762v7.788a33.381,33.381,0,0,0,7.449-15.089c1.054-5.644-.084-9.123-.573-16.063a85.953,85.953,0,0,1,1.146-20.93q1.146-6.328,2.292-12.656c.323-1.845,1.937-10.958,4.011-18.5a63.011,63.011,0,0,1,2.865-7.3c1.135-2.58,1.7-3.565,2.865-4.381a8.942,8.942,0,0,1,5.024-1.4h.266a8.942,8.942,0,0,1,5.024,1.4c1.161.816,1.73,1.8,2.865,4.381a63.011,63.011,0,0,1,2.865,7.3c2.074,7.539,3.688,16.652,4.011,18.5q1.146,6.328,2.292,12.656a85.953,85.953,0,0,1,1.146,20.93c-.489,6.94-1.627,10.419-.573,16.063a33.381,33.381,0,0,0,7.449,15.089v-7.788c-.469-1.949-1.144-5-1.719-8.762" transform="translate(-12.59 -48.887)" fill="#432525"/>
            <path id="Path_30310" data-name="Path 30310" d="M109.463,110.207a12.552,12.552,0,0,1,7.449,4.381,9,9,0,0,1,1.719,7.3l2.292,4.867,1.719,6.328.573,2.434q.286,3.651.573,7.3c-.2,2.744.094,5.478-1.719,7.788-2.292,2.921-14.147,11.049-14.325,14.116,0,0-1.595-8.762-2.292-8.762s7.449-10.709,7.449-10.709q-.573-4.624-1.146-9.248L108.89,125.3a20.8,20.8,0,0,1,.573-15.089" transform="translate(-45.011 -56.564)" fill="#432525"/>
            <path id="Path_30311" data-name="Path 30311" d="M26.484,437.207l1.146,4.286-1.146,3.988H37.474l-2.2-4.137.956-4.137Z" transform="translate(-11.309 -224.396)" fill="#432525"/>
            <path id="Path_30312" data-name="Path 30312" d="M103.289,437.207l1.146,4.286-1.146,3.988h10.989l-2.2-4.137.956-4.137Z" transform="translate(-44.106 -224.396)" fill="#432525"/>
            <g id="Group_18926" data-name="Group 18926" transform="translate(3.216)">
              <path id="Path_30317" data-name="Path 30317" d="M16.521,52.317l-2.754-3.672v-2.14l-2.754-3.367.918-.918V39.467h-.918l.918-16.521,1.836-.4.918-6.945,4.59-6.425.918-3.671L18.357,0H16.51l.012,1.836L15.6,1.286l-1.836.549v.918l-.918-.918-1.836.05v1.3l-1.836-.43L8.261,4.589,7.343,10.1,4.59,19.274l.918,1.836L1.836,30.289,0,39.467v5.141l.918,3.12,2.016,4.589c2.083,2.406,2.26,6.391,4.548,9.032,2.591,2.993,7.292,4.642,10.088,7.87a35.8,35.8,0,0,0,.525-7.87,35.825,35.825,0,0,0-1.573-9.032" fill="#432525"/>
              <path id="Path_30318" data-name="Path 30318" d="M10.587,7.962l-3.61-.739-2.658.733-1,4.9,1.454-.979L9.494,13.3Z" transform="translate(-1.701 -3.707)"/>
              <path id="Path_30319" data-name="Path 30319" d="M39.723,9.893h8.759l43.795,1.251-18.769,2.5L50.894,14.9H38.971Z" transform="translate(-20.002 -5.076)" fill="#1a1a1a"/>
            </g>
            <path id="Path_30338" data-name="Path 30338" d="M56.652,65.671l1.479,4.437v4.3l2.219,1.617H72.993c-.072,0,2.146-2.219,2.146-2.219V68.686l1.479-3.756a46.689,46.689,0,0,0-19.966.74" transform="translate(-24.095 -32.935)" fill="#642f2e"/>
            <path id="Path_30339" data-name="Path 30339" d="M56.848,50.88a91.788,91.788,0,0,1,19.778-.353V41.444a7.319,7.319,0,0,0-2.03-4.673,7.858,7.858,0,0,0-3.7-2.116,14.217,14.217,0,0,0-7.119,0c-.782.238-5.715,1.826-6.931,5.643-.347,1.091-.1,1.436,0,5.643.047,2.079.027,3.79,0,4.938" transform="translate(-24.104 -18.886)" fill="#642f2e"/>
            <path id="Path_30340" data-name="Path 30340" d="M66.618,62.474a87.626,87.626,0,0,0-9.589.736c0,.628-.014,1.182-.024,1.647a87.6,87.6,0,0,1,19.778-.37V62.844a87.531,87.531,0,0,0-10.165-.37" transform="translate(-24.261 -32.122)" fill="#432525"/>
          </g>
        </g>
      </g>
    </g>
  </g>
</svg>
