<svg xmlns="http://www.w3.org/2000/svg" width="37.509" height="37.356" viewBox="0 0 37.509 37.356">
  <g id="png_-_character" data-name="png - character" transform="translate(-156.335 -524.999)">
    <path id="Union_1" data-name="Union 1" d="M0,3.6A3.6,3.6,0,0,1,6.189,1.1c.472.249.954.49,1.339.657a1.961,1.961,0,0,0,1.153.211c.163-.02.227-.045.3.108.138.332-.887,1-.887,1a5.046,5.046,0,0,0-.932-.047A3.6,3.6,0,1,1,0,3.6Z" transform="translate(170.441 524.999)" fill="#de4e4e"/>
    <g id="Group_17759" data-name="Group 17759" transform="translate(156.335 531.212)">
      <path id="Path_29168" data-name="Path 29168" d="M-2667.74-21263.1s-9.531,9.2-12.11,15.7,1.794,10.32,1.794,10.32,8.129-4.937,13.119-4.937,2.607,2.914,6.84,4.938a49.951,49.951,0,0,0,10.092,3.137s5.27-5.1,4.822-9.084-6.616-6.84-14.914-20.072Z" transform="translate(2680.665 21263.102)" fill="#de4e4e"/>
      <path id="Path_29169" data-name="Path 29169" d="M-2677.728-21235.832s5.2,3.326,9.894,3.924,5.987.637,10.757.943,4.533.449,6.875.2,2.537-1.861,2.537-1.861a59.913,59.913,0,0,1-7.505-2.125c-2.925-1.146-2.289-.666-4.012-2.035s-1.617-3.092-3.3-3.639-2.027-.766-5.943.332A50.344,50.344,0,0,0-2677.728-21235.832Z" transform="translate(2680.372 21261.783)" fill="#c84141"/>
    </g>
  </g>
</svg>
