<svg xmlns="http://www.w3.org/2000/svg" width="48.793" height="29.051" viewBox="0 0 48.793 29.051">
  <g id="png_-_footprint" data-name="png - footprint" transform="translate(-198.408 -544.635)">
    <g id="Group_11419" data-name="Group 11419" transform="translate(76 4)">
      <path id="Path_28228" data-name="Path 28228" d="M-21614.232-17328l-2.65,1.49" transform="translate(21779 17870)" fill="none" stroke="#f9bc96" stroke-linecap="round" stroke-width="2"/>
      <path id="Path_28229" data-name="Path 28229" d="M-21614.232-17328l-2.65,1.49" transform="matrix(0.999, -0.035, 0.035, 0.999, 22375.545, 17105.818)" fill="none" stroke="#f9bc96" stroke-linecap="round" stroke-width="2"/>
    </g>
    <g id="Group_11420" data-name="Group 11420" transform="translate(66 9)">
      <path id="Path_28228-2" data-name="Path 28228" d="M-21614.232-17328l-2.65,1.49" transform="translate(21779 17870)" fill="none" stroke="#f9bc96" stroke-linecap="round" stroke-width="2"/>
      <path id="Path_28229-2" data-name="Path 28229" d="M-21614.232-17328l-2.65,1.49" transform="matrix(0.999, -0.035, 0.035, 0.999, 22375.545, 17105.818)" fill="none" stroke="#f9bc96" stroke-linecap="round" stroke-width="2"/>
    </g>
    <g id="Group_11421" data-name="Group 11421" transform="translate(57.326 15)">
      <path id="Path_28228-3" data-name="Path 28228" d="M-21614.232-17328l-2.65,1.49" transform="translate(21779 17870)" fill="none" stroke="#f9bc96" stroke-linecap="round" stroke-width="2"/>
      <path id="Path_28229-3" data-name="Path 28229" d="M-21614.232-17328l-2.65,1.49" transform="matrix(0.999, -0.035, 0.035, 0.999, 22375.545, 17105.818)" fill="none" stroke="#f9bc96" stroke-linecap="round" stroke-width="2"/>
    </g>
    <g id="Group_11422" data-name="Group 11422" transform="translate(47.652 22)">
      <path id="Path_28228-4" data-name="Path 28228" d="M-21614.232-17328l-2.65,1.49" transform="translate(21779 17870)" fill="none" stroke="#f9bc96" stroke-linecap="round" stroke-width="2"/>
      <path id="Path_28229-4" data-name="Path 28229" d="M-21614.232-17328l-2.65,1.49" transform="matrix(0.999, -0.035, 0.035, 0.999, 22375.545, 17105.818)" fill="none" stroke="#f9bc96" stroke-linecap="round" stroke-width="2"/>
    </g>
    <g id="Group_11423" data-name="Group 11423" transform="translate(37.652 28)">
      <path id="Path_28228-5" data-name="Path 28228" d="M-21614.232-17328l-2.65,1.49" transform="translate(21779 17870)" fill="none" stroke="#f9bc96" stroke-linecap="round" stroke-width="2"/>
      <path id="Path_28229-5" data-name="Path 28229" d="M-21614.232-17328l-2.65,1.49" transform="matrix(0.999, -0.035, 0.035, 0.999, 22375.545, 17105.818)" fill="none" stroke="#f9bc96" stroke-linecap="round" stroke-width="2"/>
    </g>
  </g>
</svg>
