<svg xmlns="http://www.w3.org/2000/svg" xmlns:xlink="http://www.w3.org/1999/xlink" width="375.352" height="129.045" viewBox="0 0 375.352 129.045">
  <defs>
    <clipPath id="clip-path">
      <path id="Path_30643" data-name="Path 30643" d="M0,0S58.972,2.306,152.81-1.205s222.542-12.84,222.542-12.84L375,115H0Z" transform="translate(-3117.352 -19694)" fill="#fff" stroke="#707070" stroke-width="1" opacity="0.07"/>
    </clipPath>
  </defs>
  <g id="png_-_layer_1" data-name="png - layer 1" transform="translate(3117.352 19708.045)" clip-path="url(#clip-path)">
    <path id="Path_30610" data-name="Path 30610" d="M1188.911,447.561c-6.5,7.761-32.367,13.479-109.839,5.325-100.77-10.606-74.878-19.374-75.93-24.7-43.654-5.761-31.472-5.1-49.1-5.373-114.408-1.789-80.652-5.042-217.361,4.252-367.225,24.961-352.866,5.335-448.712-6,57.574,25.194-35.789,75.1-251.651,100.411v67.083l1228.5-58.947V453.182s-30.439-1.874-75.911-5.622" transform="translate(-3551.807 -20130.516)" fill="#a62c39"/>
    <path id="Path_30611" data-name="Path 30611" d="M36.322,526.811S566.317,419.6,777.263,450.849c353.808,52.416,487.559,50.654,487.559,50.654v92.467H36.322Z" transform="translate(-3553.122 -20090.811)" fill="#8f2330"/>
    <path id="Path_30612" data-name="Path 30612" d="M503.032,450.3S216.174,464.556,260.123,498s411.9-3.017,445.415-10.776S658.453,446.653,503.032,450.3" transform="translate(-3413.259 -20087.697)" fill="#a02a36"/>
  </g>
</svg>
