<svg xmlns="http://www.w3.org/2000/svg" xmlns:xlink="http://www.w3.org/1999/xlink" width="374" height="225.93" viewBox="0 0 374 225.93">
  <defs>
    <clipPath id="clip-path">
      <path id="Path_30645" data-name="Path 30645" d="M0,0H374l-.245,225.93-32.543-11.01-30.436-9.213s-69.906-15.412-89.7-11.172c-26.815,5.746-33.947,7.129-33.947,7.129s-61.792-13.508-63.229-13.7-17.412-3.928-48.284-5.939-75.4-2.395-75.4-2.395Z" transform="translate(-3116.681 -19969.609)" fill="#fff" opacity="0.49"/>
    </clipPath>
  </defs>
  <g id="png_-_layer_3" data-name="png - layer 3" transform="translate(3116.681 19969.609)" clip-path="url(#clip-path)">
    <path id="Path_30583" data-name="Path 30583" d="M36.322,311.949A120.508,120.508,0,0,1,89.953,294.16c30.95-2.321,49.292,13.921,73.364,17.789s52.732-13.374,72.219-9.007,59.61,29.115,82.537,31.436,49.292-23.2,77.951-23.975,45.391,33.06,83.22,34.606,73.744-14.667,105.474-12.12S652.133,359,706.154,358.222s116.391-62,195.9-60.449,95.273,31.191,95.273,31.191-141.621,99-640.278,62.647C48.686,373.049,36.712,370.954,36.712,370.954Z" transform="translate(-3551.807 -20211.438)" fill="#fcc9aa"/>
    <path id="Path_30584" data-name="Path 30584" d="M1144.622,346.452c84.108-33.943,11.767-70.347,4.6-73.777C1038.008,273.7,944.872,332.144,834.9,375.55c-145.782,57.54-364.329,24.853-521.577-8.786s-277,8.786-277,8.786l3.592,103.322H1264.822V434.436L1008.66,406.169s47.6-24.056,135.962-59.717" transform="translate(-3551.807 -20225.002)" fill="#e39179"/>
    <path id="Path_30586" data-name="Path 30586" d="M73.469,391.293s139.23-43.979,293.2-25.654,296.478,34.061,466.83-7.4,431.169,18.772,431.169,18.772v96.485l-1228.11-8.9Z" transform="translate(-3551.655 -20179.707)" fill="#e1806d"/>
    <path id="Path_30588" data-name="Path 30588" d="M632.831,389.66C634.62,372.7,618.376,366.3,601.845,364.1l-.247.013C515.21,369.552,455.426,416.9,455.426,416.9c49.51,25.543,125.124,36.876,204.3,40.588l-138.406-27.72s107.965-6.514,111.51-40.111" transform="translate(-3284.418 -20166.67)" fill="#fabc97"/>
    <path id="Path_30592" data-name="Path 30592" d="M911.039,377.626c15.594-10.4,31.13-20.724,44.7-29.72-19.987,10.971-59.936,29.2-126.888,45.176-103.982,24.816-166.411-23.969-252.67-18.644,16.529,2.19,32.775,8.6,30.984,25.556-3.545,33.6-111.509,40.111-111.509,40.111l138.406,27.72c29.8,1.4,60.108,1.715,89.718,1.3L925.8,444.442s-58.673-37.527-14.765-66.816" transform="translate(-3258.752 -20177.004)" fill="#fcc9aa"/>
  </g>
</svg>
