<svg xmlns="http://www.w3.org/2000/svg" xmlns:xlink="http://www.w3.org/1999/xlink" width="374" height="102.54" viewBox="0 0 374 102.54">
  <defs>
    <clipPath id="clip-path">
      <path id="Path_30644" data-name="Path 30644" d="M.638-8.85S26.856-10.674,73.791-7.32,187.74,13.414,187.74,13.414s21.532-6,29.627-6.648,18.8-5.718,58.124,1.941S374,37.4,374,37.4V75.459s-127.085,8.193-220.585,12.8S0,93.2,0,93.2Z" transform="translate(-3122.049 -19878.25)" fill="#fff" opacity="0.13"/>
    </clipPath>
  </defs>
  <g id="png_-_layer_2" data-name="png - layer 2" transform="translate(3122.049 19887.596)" clip-path="url(#clip-path)">
    <path id="Path_30587" data-name="Path 30587" d="M372.15,455.425s111.156-5.409,137.687-31.813c16.228-16.152.514-25.64-14.136-30.573-31.64-2.352-64.231-2.028-92.734,3.72-24.588,4.957-51.667,9.468-78.922,12.408-72.65,25.687-20.509,48.221-20.509,48.221L39.233,452s43.011-10.406,70.852-53.84c14.429-22.511,2.616-38.023-12.115-47.746a215.6,215.6,0,0,0-61.648-14.354V479.04H549.453L577.561,459.7c-77.6,11.265-205.412-4.272-205.412-4.272" transform="translate(-3551.807 -20284.561)" fill="#fabc97"/>
    <path id="Path_30590" data-name="Path 30590" d="M364.9,370.846c14.65,4.934,30.364,14.421,14.134,30.573-26.529,26.4-137.685,31.813-137.685,31.813s127.811,15.536,205.412,4.272l59.989-41.286S438.392,376.307,364.9,370.846" transform="translate(-3421.002 -20262.369)" fill="#fcc9aa"/>
    <path id="Path_30594" data-name="Path 30594" d="M142.48,423.349s102-21.043,130.1-19.49S497.4,438.013,497.4,438.013l234.306,3.1s68.016-51.777,148.716-50.457c72.7,1.194,222.735,62.146,222.735,62.146L129.332,457.42Z" transform="translate(-3492.466 -20249.742)" fill="#e47d6c"/>
    <path id="Path_30597" data-name="Path 30597" d="M442.263,464.665c49.411,1.29,109.321-3.02,116.454-30.613,5.937-22.972-5.457-40.22-18.9-51.956-13.024-2.295-25.03-3.55-35.508-3.274-59.362,1.556-123.5,32.768-159.055,52.988,16.182,3.142,34.208,8.557,55.251,17.023,14.181,5.707,28.151,10.974,41.754,15.831" transform="translate(-3360.706 -20259.516)" fill="#e35a52"/>
    <path id="Path_30600" data-name="Path 30600" d="M491.34,423.67c-5.931,22.947-55.749,26.531-96.837,25.456A1019.766,1019.766,0,0,0,532.1,487.658l313.1-9.058s-86.251-34.4-45.974-70.976c-44.472,12.226-73.654,29.461-115.038,28.339-49-1.33-144.208-44.167-208.554-55.5,11.176,9.761,20.65,24.1,15.713,43.2" transform="translate(-3323.287 -20256.23)" fill="#d34b4d"/>
    <path id="Path_30602" data-name="Path 30602" d="M522.247,434.173c-11.312-4.039-22.929-8.419-34.721-13.165-17.5-7.04-32.488-11.543-45.944-14.156-43.086-8.367-70.372,2.726-113.333,12.6-47.111,25.427-4.229,47.142-4.229,47.142s-63.646,5.384-129.741,7.415l219.033.185,106.244.09,83.166.07,57.117-1.653a1019.826,1019.826,0,0,1-137.592-38.532" transform="translate(-3451.031 -20241.277)" fill="#ef6a5b"/>
  </g>
</svg>
