<svg id="Group_18906" data-name="Group 18906" xmlns="http://www.w3.org/2000/svg" xmlns:xlink="http://www.w3.org/1999/xlink" width="29.363" height="89.82" viewBox="0 0 29.363 89.82">
  <defs>
    <clipPath id="clip-path">
      <rect id="Rectangle_20296" data-name="Rectangle 20296" width="29.363" height="89.82" fill="none"/>
    </clipPath>
    <clipPath id="clip-path-3">
      <rect id="Rectangle_20293" data-name="Rectangle 20293" width="1.875" height="7.119" fill="#813f3e"/>
    </clipPath>
    <clipPath id="clip-path-4">
      <rect id="Rectangle_20294" data-name="Rectangle 20294" width="1.938" height="7.119" fill="#813f3e"/>
    </clipPath>
  </defs>
  <g id="Group_18904" data-name="Group 18904" clip-path="url(#clip-path)">
    <g id="Group_18903" data-name="Group 18903">
      <g id="Group_18902" data-name="Group 18902" clip-path="url(#clip-path)">
        <path id="Path_30304" data-name="Path 30304" d="M44.39,147.9c-.11-.727-.226-1.129-.4-2.175a33.109,33.109,0,0,1-.4-3.8v-1.538q-.1-3.856-.2-7.712a48.83,48.83,0,0,0-.2-7.119c-.15-1.471-.34-2.83-.791-5.537l-.791-4.746a9.406,9.406,0,0,1-.593-4.153,28.658,28.658,0,0,1,.989-3.955,23.262,23.262,0,0,0,.593-3.955,7.062,7.062,0,0,1-1.384-2.769,7.5,7.5,0,0,1-.2-1.78,9.292,9.292,0,0,1,.4-2.769A7.38,7.38,0,0,0,35.659,93.9a6.2,6.2,0,0,1-1.127,0,7.38,7.38,0,0,0-5.764,1.986,9.292,9.292,0,0,1,.4,2.769,7.5,7.5,0,0,1-.2,1.78,7.062,7.062,0,0,1-1.384,2.769,23.262,23.262,0,0,0,.593,3.955,28.657,28.657,0,0,1,.989,3.955,9.406,9.406,0,0,1-.593,4.153l-.791,4.746c-.451,2.707-.641,4.066-.791,5.537a48.829,48.829,0,0,0-.2,7.119q-.1,3.856-.2,7.712v1.538a33.113,33.113,0,0,1-.4,3.8c-.17,1.047-.286,1.448-.4,2.175a16.169,16.169,0,0,0,0,4.668v9.2h3.362a25.127,25.127,0,0,1,1.187-10.112c.109-.431.268-1.12.4-1.978.423-2.84.022-4.283.2-6.724a18.557,18.557,0,0,1,.791-4.153l.989-5.537c.042-.295.169-1.186.4-2.769.253-1.764.391-2.66.989-3.362l.01-.012a1.289,1.289,0,0,1,1.957,0l.01.012c.6.7.736,1.6.989,3.362.227,1.583.354,2.474.4,2.769l.989,5.537a18.556,18.556,0,0,1,.791,4.153c.176,2.441-.226,3.884.2,6.724.128.857.287,1.547.4,1.978a25.127,25.127,0,0,1,1.187,10.112H44.39v-9.2a16.169,16.169,0,0,0,0-4.668" transform="translate(-20.564 -75.307)" fill="#642f2f"/>
        <g id="Group_18898" data-name="Group 18898" transform="translate(20.369 20.805)">
          <g id="Group_18897" data-name="Group 18897">
            <g id="Group_18896" data-name="Group 18896" clip-path="url(#clip-path-3)">
              <path id="Path_30305" data-name="Path 30305" d="M103.3,105.207l1.582.989a14.2,14.2,0,0,0-.2,6.13,8.134,8.134,0,0,1-1.384-2.769,8.252,8.252,0,0,1,0-4.351" transform="translate(-103.004 -105.207)" fill="#813f3e"/>
            </g>
          </g>
        </g>
        <g id="Group_18901" data-name="Group 18901" transform="translate(6.724 20.805)">
          <g id="Group_18900" data-name="Group 18900">
            <g id="Group_18899" data-name="Group 18899" clip-path="url(#clip-path-4)">
              <path id="Path_30306" data-name="Path 30306" d="M35.586,105.207,34,106.2a16.039,16.039,0,0,1,.293,6.13,7.776,7.776,0,0,0,1.384-2.769,7.9,7.9,0,0,0-.095-4.351" transform="translate(-34.004 -105.207)" fill="#813f3e"/>
            </g>
          </g>
        </g>
        <path id="Path_30307" data-name="Path 30307" d="M53.484,88.38V87a10.778,10.778,0,0,1,8.108,0V88.38a14.139,14.139,0,0,0-8.108,0" transform="translate(-42.907 -69.158)" fill="#432525"/>
        <path id="Path_30308" data-name="Path 30308" d="M57.439,86.205A10.8,10.8,0,0,0,53.484,87v.4a10.778,10.778,0,0,1,8.108,0V87a10.8,10.8,0,0,0-4.153-.791" transform="translate(-42.907 -69.158)" fill="#642f2e"/>
        <path id="Path_30309" data-name="Path 30309" d="M46.293,144.086c-.7-5.418-.013-7.059-.4-13.447-.061-1.02-.251-3.86-.791-7.515-.273-1.85-.561-3.4-.791-4.548l-.4-2.966a9.525,9.525,0,0,1-.2-4.746c.2-.884.461-1.329.791-2.571a18.417,18.417,0,0,0,.593-3.757,8.06,8.06,0,0,1-.989-7.317,7,7,0,0,0-5.445-1.947,6.234,6.234,0,0,1-.976,0,7,7,0,0,0-5.445,1.947,8.06,8.06,0,0,1-.989,7.317,18.417,18.417,0,0,0,.593,3.757c.33,1.242.588,1.687.791,2.571a9.525,9.525,0,0,1-.2,4.746l-.4,2.966c-.23,1.145-.518,2.7-.791,4.548-.54,3.655-.73,6.495-.791,7.515-.382,6.388.309,8.029-.4,13.447-.2,1.528-.431,2.768-.593,3.56v3.164a14.579,14.579,0,0,0,2.571-6.13c.364-2.293-.029-3.706-.2-6.526a41.024,41.024,0,0,1,.4-8.5l.791-5.142c.111-.749.668-4.452,1.384-7.515a28.558,28.558,0,0,1,.989-2.966,3.753,3.753,0,0,1,.989-1.78,2.747,2.747,0,0,1,1.734-.57h.092a2.747,2.747,0,0,1,1.734.57,3.753,3.753,0,0,1,.989,1.78,28.557,28.557,0,0,1,.989,2.966c.716,3.063,1.273,6.765,1.384,7.515l.791,5.142a41.024,41.024,0,0,1,.4,8.5c-.169,2.82-.561,4.233-.2,6.526a14.579,14.579,0,0,0,2.571,6.13v-3.164c-.162-.792-.395-2.032-.593-3.56" transform="translate(-23.653 -76.414)" fill="#432525"/>
        <path id="Path_30310" data-name="Path 30310" d="M106.809,110.207a4.106,4.106,0,0,1,3.164,4.746l.791,1.978.593,2.571.2.989.2,2.966a6.065,6.065,0,0,1-.593,3.164c-.791,1.187-4.882,4.489-4.944,5.735,0,0-.55-3.56-.791-3.56S108,124.445,108,124.445l-.4-3.757-.989-4.351a9.851,9.851,0,0,1,.2-6.13" transform="translate(-84.565 -88.413)" fill="#432525"/>
        <path id="Path_30311" data-name="Path 30311" d="M26.484,437.207l.4,1.741-.4,1.62h3.793l-.761-1.681.33-1.681Z" transform="translate(-21.247 -350.748)" fill="#432525"/>
        <path id="Path_30312" data-name="Path 30312" d="M103.289,437.207l.4,1.741-.4,1.62h3.793l-.761-1.681.33-1.681Z" transform="translate(-82.863 -350.748)" fill="#432525"/>
        <path id="Path_30313" data-name="Path 30313" d="M56.652,64.74l.55,1.651v1.6l.826.6h4.706c-.027,0,.8-.826.8-.826v-1.9l.551-1.4a17.377,17.377,0,0,0-7.431.275" transform="translate(-45.449 -51.495)" fill="#642f2e"/>
        <path id="Path_30314" data-name="Path 30314" d="M56.736,40.412a34.162,34.162,0,0,1,7.361-.131V36.9a2.724,2.724,0,0,0-.756-1.739,2.924,2.924,0,0,0-1.376-.788,5.291,5.291,0,0,0-2.649,0c-.291.088-2.127.679-2.58,2.1-.129.406-.036.534,0,2.1.018.774.01,1.41,0,1.838" transform="translate(-45.463 -27.443)" fill="#642f2e"/>
        <path id="Path_30315" data-name="Path 30315" d="M56.746,49.91c0-.365,0-.795-.009-1.277-.014-.656-.038-1.068-.052-1.358-.042.306.024.652.052,1.97.005.235.008.457.009.666" transform="translate(-45.464 -37.926)" fill="#4d4d4d"/>
        <path id="Path_30316" data-name="Path 30316" d="M60.583,62.461a32.612,32.612,0,0,0-3.569.274c0,.234-.005.44-.009.613a32.6,32.6,0,0,1,7.361-.138V62.6a32.577,32.577,0,0,0-3.783-.138" transform="translate(-45.732 -50.103)" fill="#432525"/>
        <path id="Path_30317" data-name="Path 30317" d="M6.712,21.255,5.593,19.763v-.87L4.475,17.526l.373-.373V16.034H4.475l.373-6.712.746-.162.373-2.822,1.865-2.61L8.2,2.237,7.458,0h-.75l0,.746L6.339.523,5.593.746v.373L5.22.746l-.746.02v.527l-.746-.175-.373.746L2.983,4.1,1.865,7.831l.373.746L.746,12.305,0,16.034v2.089L.373,19.39l.819,1.864,5.946,6.867a14.545,14.545,0,0,0,.213-3.2,14.554,14.554,0,0,0-.639-3.669" fill="#432525"/>
        <path id="Path_30318" data-name="Path 30318" d="M6.269,7.524,4.8,7.223l-1.08.3L3.315,9.513l.591-.4,1.92.576Z" transform="translate(-2.66 -5.795)"/>
        <path id="Path_30319" data-name="Path 30319" d="M39.276,9.893h3.559l17.793.508L53,11.418l-9.187.508H38.971Z" transform="translate(-31.264 -7.936)" fill="#1a1a1a"/>
      </g>
    </g>
  </g>
</svg>
