<svg xmlns="http://www.w3.org/2000/svg" width="375.244" height="73.337" viewBox="0 0 375.244 73.337">
  <g id="png_-_layer_1" data-name="png - layer 1" transform="translate(426.723 -269.589)">
    <path id="Path_29971" data-name="Path 29971" d="M387.611,432.48c-1.98,3.392-9.865,5.892-33.477,2.328-30.713-4.636-22.821-8.468-23.142-10.8-13.305-2.518-9.592-2.227-14.964-2.348-34.869-.782-24.581-2.2-66.248,1.859-111.924,10.91-80.209,3.186-129.292,7.9s-40.406,5.119-44.327,12.313c-3.628,6.665-7.076,15.548-39.84,21.058v29.321l374.425-25.765v-33.4s-9.277-.819-23.137-2.457" transform="translate(-462.471 -151.182)" fill="#a62c39"/>
    <path id="Path_29973" data-name="Path 29973" d="M36.322,480.915s161.886-46.964,226.319-33.275c108.07,22.961,148.924,22.189,148.924,22.189v40.5H36.322Z" transform="translate(-463.045 -171.408)" fill="#8f2330"/>
    <path id="Path_29972" data-name="Path 29972" d="M363.718,450.143s-125.383,6.23-106.173,20.847,180.039-1.319,194.686-4.71-20.58-17.732-88.513-16.137" transform="translate(-600.887 -157.729)" fill="#a02a36"/>
  </g>
</svg>
