<svg id="ico_-_quotation_-_default" data-name="ico - quotation - default" xmlns="http://www.w3.org/2000/svg" width="56" height="56" viewBox="0 0 56 56">
  <path id="Path_29560" data-name="Path 29560" d="M0,0H56V56H0Z" fill="none"/>
  <path id="Path_29561" data-name="Path 29561" d="M6.694,33.985C4.29,31.432,3,28.569,3,23.928,3,15.762,8.733,8.442,17.07,4.823l2.084,3.215c-7.782,4.209-9.3,9.672-9.91,13.116a8.354,8.354,0,0,1,4.5-.726,8.166,8.166,0,0,1-.639,16.308A9.032,9.032,0,0,1,6.694,33.985Zm23.333,0c-2.4-2.553-3.694-5.416-3.694-10.057,0-8.167,5.733-15.486,14.07-19.105l2.084,3.215c-7.782,4.209-9.3,9.672-9.91,13.116a8.354,8.354,0,0,1,4.5-.726,8.166,8.166,0,0,1-.639,16.308A9.032,9.032,0,0,1,30.027,33.985Z" transform="translate(4 6.431)" fill="#f24d4d" opacity="0.15"/>
</svg>
