<svg xmlns="http://www.w3.org/2000/svg" width="16" height="16" viewBox="0 0 16 16">
  <g id="ico_-_token_-_default" data-name="ico - token - default" transform="translate(2994 21873)">
    <circle id="Ellipse_1604" data-name="Ellipse 1604" cx="8" cy="8" r="8" transform="translate(-2994 -21873)" fill="#373737"/>
    <circle id="Ellipse_1605" data-name="Ellipse 1605" cx="6.4" cy="6.4" r="6.4" transform="translate(-2992.4 -21871.398)" fill="#373737"/>
    <path id="Path_30287" data-name="Path 30287" d="M9.468,4.515a.59.59,0,0,0-.521-.422L6.826,3.941,6.04,1.885a.575.575,0,0,0-1.085,0l-.8,2.067-2.107.141a.594.594,0,0,0-.521.423.637.637,0,0,0,.186.67L3.334,6.607,2.852,8.574A.7.7,0,0,0,3.1,9.3a.624.624,0,0,0,.718.022l1.675-1.1H5.5L7.3,9.4a.559.559,0,0,0,.31.1.582.582,0,0,0,.465-.241.629.629,0,0,0,.1-.529L7.668,6.578,9.283,5.185a.637.637,0,0,0,.185-.67Z" transform="translate(-2991.498 -21870.5)" fill="#fff"/>
  </g>
</svg>
